<svg width="80" height="78" viewBox="0 0 80 78" fill="none" xmlns="http://www.w3.org/2000/svg">
<path d="M39.9999 35.0938C31.2843 35.0938 24.2187 42.1594 24.2187 50.875C24.2187 59.5906 31.2843 66.6562 39.9999 66.6562C48.7155 66.6562 55.7812 59.5906 55.7812 50.875C55.7812 42.1594 48.7155 35.0938 39.9999 35.0938ZM49.1905 53.6031H42.728V60.0656H37.2718V53.6031H30.8093V48.1469H37.2718V41.6844H42.728V48.1469H49.1905V53.6031ZM0.659912 21.0312C0.659912 25.3056 3.66772 28.9381 7.53491 30.2737V72.2812H0.659912V77.9062H79.4099V72.2812H72.5349V30.2669C76.563 29.0341 79.3158 25.4556 79.4099 21.0312V18.5312H0.659912V21.0312ZM20.438 20.8269C20.438 22.8509 22.549 30.6613 30.3527 30.6613C37.1305 30.6613 40.1033 24.5316 40.1033 20.8269C40.1033 24.2806 42.419 30.6541 49.9358 30.6541C56.7274 30.6541 59.7368 24.0919 59.7368 20.8269C59.7368 25.3347 62.7762 29.0819 66.9099 30.25V72.2812H13.1599V30.2794C17.348 29.1456 20.438 25.3734 20.438 20.8269ZM79.4099 16.3438H0.659912L10.6599 6.34375V0.09375H69.7224V6.34375H69.6699L79.4099 16.3438Z" fill="#72AE68"/>
</svg>
